<svg width="460" height="370" viewBox="0 0 460 370" fill="none" xmlns="http://www.w3.org/2000/svg">
<g clip-path="url(#clip0_1_440)">
<path d="M129.706 245.968C158.466 245.968 181.78 222.677 181.78 193.946C181.78 165.215 158.466 141.924 129.706 141.924C100.946 141.924 77.6313 165.215 77.6313 193.946C77.6313 222.677 100.946 245.968 129.706 245.968Z" fill="#EBF3FF"/>
<path d="M115.637 269.913L128.447 277.844V224.244L114.089 215.354C112.899 214.621 112.037 213.465 111.656 212.121C113.028 211.859 114.448 212.121 115.637 212.855L128.447 220.786V199.999C128.447 195.98 128.94 191.971 129.915 188.069C130.89 191.971 131.383 195.974 131.383 199.999V233.926L150.278 222.226C151.789 221.289 153.536 220.813 155.309 220.84C154.543 222.44 153.337 223.789 151.827 224.72L131.383 237.378V364.14H128.441V281.291L114.083 272.401C112.894 271.668 112.032 270.512 111.651 269.169C113.023 268.906 114.442 269.169 115.632 269.902L115.637 269.913Z" fill="#B4C3D8"/>
<path d="M52.5745 250.388C81.3344 250.388 104.649 227.098 104.649 198.367C104.649 169.636 81.3344 146.345 52.5745 146.345C23.8145 146.345 0.5 169.636 0.5 198.367C0.5 227.098 23.8145 250.388 52.5745 250.388Z" fill="#EBF3FF"/>
<path d="M66.6431 274.333L53.8335 282.265V228.665L68.1915 219.775C69.3808 219.042 70.2434 217.886 70.6237 216.542C69.2522 216.28 67.8325 216.542 66.6431 217.275L53.8335 225.207V204.42C53.8335 200.4 53.3406 196.392 52.3655 192.49C51.3905 196.392 50.8976 200.395 50.8976 204.42V238.346L32.0018 226.647C30.491 225.71 28.7445 225.234 26.9712 225.261C27.7373 226.861 28.9427 228.21 30.4535 229.141L50.8976 241.798V364.424H53.8388V285.712L68.1968 276.822C69.3862 276.089 70.2487 274.933 70.6291 273.589C69.2576 273.327 67.8379 273.589 66.6485 274.323L66.6431 274.333Z" fill="#B4C3D8"/>
<path d="M90.4035 179.34C139.92 179.34 180.061 139.24 180.061 89.774C180.061 40.308 139.92 0.207794 90.4035 0.207794C40.8873 0.207794 0.74646 40.308 0.74646 89.774C0.74646 139.24 40.8873 179.34 90.4035 179.34Z" fill="#EBF3FF"/>
<path d="M114.625 220.572L92.5679 234.225V141.935L117.287 126.633C119.328 125.37 120.823 123.385 121.471 121.067C119.109 120.618 116.666 121.067 114.619 122.336L92.5626 135.989V100.2C92.5626 93.2742 91.7107 86.3808 90.0338 79.664C88.3516 86.3808 87.5051 93.2796 87.5051 100.2V158.612L54.9693 138.472C52.3709 136.861 49.3654 136.037 46.3116 136.085C47.6296 138.841 49.7083 141.164 52.3066 142.77L87.5105 164.563V364.628H92.5733V240.177L117.293 224.875C119.334 223.612 120.828 221.627 121.477 219.309C119.114 218.86 116.671 219.309 114.625 220.578V220.572Z" fill="#B4C3D8"/>
<path d="M459.5 364.146H0.5V365.216H459.5V364.146Z" fill="#0D114F"/>
<path d="M350.499 161.806L329.495 173.92L341.622 194.903L362.626 182.789L350.499 161.806Z" fill="#EBF3FF"/>
<path d="M350.765 199.277L338.1 177.365L360.034 164.713L372.699 186.624L350.765 199.277ZM339.563 177.756L351.156 197.815L371.236 186.234L359.642 166.174L339.563 177.756Z" fill="#0D114F"/>
<path d="M331.114 258.16C336.736 258.16 341.293 253.607 341.293 247.991C341.293 242.375 336.736 237.822 331.114 237.822C325.492 237.822 320.935 242.375 320.935 247.991C320.935 253.607 325.492 258.16 331.114 258.16Z" fill="#B4C3D8"/>
<path d="M338.614 258.695C332.694 258.695 327.899 253.905 327.899 247.991C327.899 242.077 332.694 237.287 338.614 237.287C344.534 237.287 349.329 242.077 349.329 247.991C349.329 253.905 344.534 258.695 338.614 258.695ZM338.614 238.357C333.289 238.357 328.971 242.671 328.971 247.991C328.971 253.311 333.289 257.624 338.614 257.624C343.94 257.624 348.258 253.311 348.258 247.991C348.258 242.671 343.94 238.357 338.614 238.357Z" fill="#0D114F"/>
<path d="M395.328 366.581H296.751C294.238 366.581 292.203 364.542 292.197 362.032V270.512C292.197 268.002 294.238 265.968 296.751 265.963H395.328C397.841 265.963 399.877 268.002 399.882 270.512V362.032C399.882 364.542 397.841 366.576 395.328 366.581Z" fill="#5498FF"/>
<path d="M353.004 369.792H339.075C336.562 369.792 334.527 367.753 334.521 365.243V267.793C334.521 265.283 336.562 263.249 339.075 263.244H353.004C355.517 263.244 357.553 265.283 357.558 267.793V365.243C357.558 367.753 355.517 369.787 353.004 369.792Z" fill="#0D114F"/>
<path d="M421.521 256.902C420.942 266.343 408.181 273.247 408.181 273.247C408.181 273.247 396.346 264.844 396.925 255.403C397.503 245.962 410.265 239.058 410.265 239.058C410.265 239.058 422.1 247.461 421.521 256.902Z" fill="#0D114F"/>
<path d="M422.1 286.359C412.649 285.813 405.695 273.081 405.695 273.081C405.695 273.081 414.069 261.237 423.519 261.783C432.97 262.329 439.924 275.061 439.924 275.061C439.924 275.061 431.55 286.905 422.1 286.359Z" fill="#0D114F"/>
<path opacity="0.1" d="M399.614 277.159V312.097L364.828 266.23H391.326L399.614 277.159Z" fill="black"/>
<path d="M429.145 336.963C427.719 336.963 426.369 336.299 425.512 335.165L353.042 239.609C351.52 237.608 351.917 234.755 353.92 233.235L364.598 225.154C366.602 223.639 369.457 224.03 370.979 226.031L443.449 321.586C444.97 323.588 444.574 326.441 442.57 327.961L431.893 336.042C431.105 336.642 430.141 336.963 429.15 336.963H429.145Z" fill="#5498FF"/>
<path d="M400.136 262.713L381.774 276.611L395.687 294.954L414.048 281.056L400.136 262.713Z" fill="#0D114F"/>
<path d="M305.681 192.814L299.404 216.217L322.831 222.488L329.108 199.085L305.681 192.814Z" fill="#B4C3D8"/>
<path d="M312.893 225.988L288.431 219.438L294.989 195L319.451 201.551L312.893 225.988ZM289.738 218.683L312.133 224.677L318.133 202.306L295.739 196.311L289.738 218.683Z" fill="#0D114F"/>
<path d="M209.843 282.795C212.275 280.467 212.355 276.613 210.03 274.184C209.784 273.927 209.51 273.686 209.221 273.477L199.385 194.251L186.672 198.024L200.392 275.126C198.581 277.983 199.433 281.767 202.294 283.576C204.689 285.091 207.807 284.765 209.843 282.795Z" fill="#FFB8B8"/>
<path d="M221.624 358.521H229.06L232.596 329.871H221.624V358.521Z" fill="#FFB8B8"/>
<path d="M243.396 365.42H220.032V356.401H235.194C239.726 356.401 243.396 360.068 243.396 364.595V365.42Z" fill="#0D114F"/>
<path d="M170.214 346.955L177.184 349.54L190.497 323.925L180.211 320.104L170.214 346.955Z" fill="#FFB8B8"/>
<path d="M188.215 360.999L166.313 352.864L169.458 344.413L183.671 349.695C187.914 351.274 190.079 355.989 188.498 360.233L188.209 361.004L188.215 360.999Z" fill="#0D114F"/>
<path d="M208.289 173.683C216.053 173.683 222.347 167.396 222.347 159.639C222.347 151.883 216.053 145.596 208.289 145.596C200.525 145.596 194.231 151.883 194.231 159.639C194.231 167.396 200.525 173.683 208.289 173.683Z" fill="#FFB8B8"/>
<path d="M186.302 195.68C185.863 182.744 199.471 173.774 210.919 179.827C212.377 180.598 227.442 193.384 228.01 201.321C228.578 209.258 229.713 222.301 229.713 222.301L245.609 340.816L211.552 339.114L215.666 304.54L193.529 339.698L166.71 331.172L199.631 236.473C199.631 236.473 186.972 215.274 186.307 195.675L186.302 195.68Z" fill="#0D114F"/>
<path d="M186.57 200.181L188.756 228.584C188.804 229.2 189.318 229.676 189.934 229.676H199.556C200.21 229.676 200.74 229.146 200.74 228.493C200.74 228.338 200.708 228.183 200.649 228.038L188.841 199.635C188.59 199.03 187.898 198.747 187.298 198.998C186.827 199.196 186.532 199.673 186.575 200.181H186.57Z" fill="#0D114F"/>
<path d="M235.987 277.871C238.13 275.275 237.76 271.438 235.162 269.297C234.883 269.067 234.589 268.864 234.278 268.687L215.227 191.158L203.044 196.392L225.706 271.358C224.243 274.408 225.535 278.064 228.588 279.53C231.144 280.756 234.203 280.065 235.992 277.871H235.987Z" fill="#FFB8B8"/>
<path d="M204.732 184.312C204.732 184.312 200.756 192.249 204.732 206.427C208.707 220.604 211.541 232.513 211.541 232.513C211.541 232.513 220.622 226.839 224.597 228.541C228.572 230.243 218.313 190.751 218.313 190.751C218.313 190.751 212.109 177.504 204.732 184.312Z" fill="#0D114F"/>
<path d="M211.589 161.828C211.777 158.917 215.457 158.815 218.382 158.788C221.308 158.762 224.801 158.863 226.456 156.455C227.549 154.865 227.34 152.655 226.44 150.948C225.54 149.24 224.051 147.929 222.588 146.666C218.816 143.407 214.927 140.174 210.4 138.087C205.873 135.999 200.563 135.159 195.865 136.834C190.095 138.89 182.295 149.481 181.62 155.561C180.944 161.641 183.382 167.844 187.481 172.393C191.579 176.943 200.971 175.107 206.88 176.723C203.29 171.644 205.653 162.417 211.412 160.046L211.589 161.828Z" fill="#0D114F"/>
</g>
<defs>
<clipPath id="clip0_1_440">
<rect width="459" height="369.584" fill="white" transform="translate(0.5 0.207794)"/>
</clipPath>
</defs>
</svg>
