<svg width="438" height="132" viewBox="0 0 438 132" fill="none" xmlns="http://www.w3.org/2000/svg">
<path d="M128.573 32.2132V96.5837L111.564 130.909L111.004 132L65.9647 129.007L48.6482 127.86L8.47607 125.202V48.2149L48.6482 49.3619L66.6361 49.8654L112.095 51.1523L128.573 32.2132Z" fill="#3485FF"/>
<path opacity="0.1" d="M128.573 36.0178V96.5837L124.405 104.948L120.153 113.564L111.564 130.909L112.516 66.5385L112.711 53.5581L120.88 44.5222L124.461 40.5777L128.573 36.0178Z" fill="#202020"/>
<g filter="url(#filter0_d_11_161)">
<path d="M130.895 15.1205V37.6124L128.573 41.2771L124.432 47.8512L120.796 53.67L112.711 66.5385H112.515L4.92334 60.9995V38.8433L5.20309 38.5356L18.0436 24.632L22.6875 19.5965L31.1079 10.5046L130.895 15.1205Z" fill="#3485FF"/>
</g>
<path d="M73.9094 26.1986L66.6918 41.8646L66.6359 49.8654L65.9645 129.007L48.6479 127.86V40.8295L57.8797 26.1986H73.9094Z" fill="#0D114F"/>
<g filter="url(#filter1_d_11_161)">
<path d="M50.1305 27.2616C45.9622 28.6604 41.4862 28.8003 37.234 27.7092C36.3948 27.5414 35.6394 27.1777 34.968 26.6462C34.2687 25.8629 33.7651 24.9117 33.5693 23.8767C32.814 21.7506 32.3943 19.5126 32.3384 17.2466C32.3943 14.9806 33.2616 12.6307 35.1079 11.3159C35.4716 11.0921 35.8353 10.8123 36.143 10.5326C36.5346 10.057 36.8144 9.49752 36.9543 8.88207C38.2131 5.10545 40.6749 1.133 44.5914 0.545521C48.2002 -0.0139785 51.5012 2.50377 54.2987 4.88165L60.4253 10.085C62.2716 5.07747 67.8386 2.53175 72.8462 4.40607C75.3919 5.35722 77.4061 7.31547 78.4412 9.83322C82.1618 5.66494 86.8337 2.44782 92.065 0.489571C93.212 0.0699465 94.5827 -0.293728 95.6458 0.349696C96.2892 0.825271 96.7928 1.49667 97.0725 2.252C98.751 5.88874 99.6462 9.86119 99.7301 13.8616C100.597 13.5539 101.576 13.8896 102.08 14.6729C102.556 15.4562 102.835 16.3234 102.863 17.2186C103.031 18.6174 103.115 20.0161 103.115 21.4428C103.115 22.9255 102.975 24.5201 101.996 25.6671C100.737 27.1218 98.5832 27.2896 96.6529 27.3176C97.5761 28.1289 97.1285 29.7794 96.0934 30.4788C95.0583 31.1781 93.7435 31.1781 92.5126 31.1781C87.7568 31.1222 82.6934 31.0103 78.7209 28.3527C77.1543 27.3176 75.8395 25.9188 74.2729 24.8838C70.4403 22.338 65.6006 22.2261 61.1526 22.422C57.1242 22.6178 53.963 25.9468 50.1305 27.2337V27.2616Z" fill="#0D114F"/>
</g>
<g filter="url(#filter2_d_11_161)">
<path d="M49.2635 26.1986C49.2635 26.1986 9.53905 31.7376 4 55.7682L12.3086 54.5373L18.1553 64.9999C18.1553 64.9999 24.3098 41.5848 42.4936 36.0458C60.6773 30.5067 67.1396 29.5836 67.1396 29.5836C67.1396 29.5836 79.7563 32.6608 91.1701 69.308L97.6323 60.384L109.018 62.8458C109.018 62.8458 100.71 34.1994 78.2177 26.1986H49.2635Z" fill="#0D114F"/>
</g>
<path d="M185.075 40.2367H205.322C205.322 48.0217 203.725 53.5384 199.021 57.907C194.904 61.7435 190.2 62.8636 185.187 62.8636C178.13 62.8636 173.285 60.2873 170.121 57.0388C167.181 54.0985 164.464 49.3379 164.464 42.841C164.464 36.3442 166.929 31.4716 170.345 28.1111C173.594 24.8627 178.634 22.3424 185.579 22.3424C189.22 22.3424 193.168 23.1545 196.164 25.0027C199.217 26.879 201.765 30.0154 203.165 33.0678L193.448 37.0723C192.748 35.252 191.628 33.9639 190.62 33.1238C188.911 31.7236 187.091 31.1915 185.159 31.1915C182.751 31.1915 180.286 32.0876 178.438 33.9079C176.142 36.2042 175.022 39.8446 175.022 42.925C175.022 46.5095 176.31 49.4499 178.13 51.4101C180.006 53.3984 182.303 54.4065 185.299 54.4065C187.063 54.4065 189.136 54.0985 190.956 52.5863C191.908 51.8302 193.028 50.402 193.364 48.2457H184.991V40.2927L185.075 40.2367Z" fill="#0D114F"/>
<path d="M231.281 36.1762H240.69V62.4996H231.281V59.6152C229.097 62.6116 225.68 63.3957 223.104 63.3957C220.276 63.3957 216.803 62.5836 213.639 59.2231C211.119 56.5068 209.858 53.5104 209.858 49.5619C209.858 44.6053 211.791 41.1328 213.919 39.0325C216.159 36.7923 219.632 35.3361 223.384 35.3361C227.613 35.3361 230.161 37.5203 231.281 38.7525V36.2322V36.1762ZM221.396 44.9973C220.108 46.2295 219.52 47.9377 219.52 49.2819C219.52 50.8221 220.164 52.4743 221.34 53.5944C222.348 54.5465 224 55.3586 225.568 55.3586C227.137 55.3586 228.621 54.7146 229.797 53.5384C230.609 52.7263 231.561 51.4101 231.561 49.3099C231.561 48.0777 231.197 46.4255 229.741 45.0253C228.845 44.2132 227.501 43.3171 225.512 43.3171C224.336 43.3171 222.74 43.7371 221.396 45.0253V44.9973Z" fill="#0D114F"/>
<path d="M247.159 36.1762H256.568V39.4806C259.172 36.0642 262.645 35.5881 264.913 35.5881C267.629 35.5881 270.514 36.2322 272.698 38.4165C274.882 40.6007 275.162 42.897 275.162 45.7814V62.4995H265.753V49.1978C265.753 47.6576 265.809 45.3613 264.577 44.0732C263.681 43.1211 262.505 42.953 261.581 42.953C260.096 42.953 258.864 43.4851 258.108 44.1852C257.156 45.0813 256.568 46.7895 256.568 48.3577V62.4995H247.159V36.1762Z" fill="#0D114F"/>
<path d="M281.604 19.57H291.014V39.4526C291.714 38.5565 292.834 37.5203 293.954 36.8763C295.774 35.8121 297.735 35.5881 299.359 35.5881C303.055 35.5881 305.548 36.8202 307.144 38.4165C309.496 40.7688 309.608 43.2331 309.608 45.7814V62.4995H300.199V49.1978C300.199 47.2656 300.087 45.2493 299.023 44.0732C298.127 43.0651 296.95 42.953 296.026 42.953C295.018 42.953 293.674 43.1211 292.61 44.0732C291.798 44.8293 291.014 46.2575 291.014 48.3577V62.4995H281.604V19.57Z" fill="#0D114F"/>
<path d="M341.336 58.9991C337.864 62.4155 333.803 63.3677 329.575 63.3677C325.738 63.3677 321.51 62.6116 317.869 58.9991C314.985 56.1707 313.809 52.8103 313.809 49.2818C313.809 44.5772 315.937 41.5249 317.869 39.6206C320.053 37.4923 323.862 35.252 329.575 35.252C335.287 35.252 339.18 37.5483 341.336 39.6206C343.268 41.4968 345.397 44.5772 345.397 49.2818C345.397 52.8103 344.22 56.1707 341.336 58.9991ZM325.402 44.9973C324.226 46.1174 323.582 47.7697 323.582 49.2818C323.582 50.794 324.338 52.3902 325.402 53.4544C326.522 54.5745 328.062 55.2186 329.631 55.2186C331.199 55.2186 332.683 54.5745 333.803 53.4544C334.979 52.3342 335.623 50.794 335.623 49.2818C335.623 47.8817 334.979 46.1734 333.803 44.9973C332.739 43.9892 331.087 43.2891 329.631 43.2891C328.174 43.2891 326.466 43.9892 325.402 44.9973Z" fill="#0D114F"/>
<path d="M360.237 36.1762V50.8781C360.237 51.9422 360.406 53.5944 361.638 54.7145C362.59 55.5267 363.822 55.7227 364.942 55.7227C366.118 55.7227 367.238 55.6107 368.303 54.6025C369.479 53.4264 369.647 52.0822 369.647 50.9061V36.2042H379.056V52.6143C379.056 54.8546 378.888 57.2629 376.536 59.6712C373.287 63.0316 368.779 63.3677 365.166 63.3677C361.218 63.3677 356.401 62.9476 353.265 59.5872C351.276 57.4589 350.8 55.1066 350.8 52.5863V36.1762H360.21H360.237Z" fill="#0D114F"/>
<path d="M166.228 111.534V72.2728H181.406C184.234 72.2728 187.595 72.6929 190.003 75.3252C191.347 76.8094 192.411 79.2177 192.411 82.6901C192.411 84.3984 192.103 85.8545 191.291 87.5068C190.479 89.047 189.583 89.9151 188.127 90.5591C190.199 90.7832 192.243 91.7353 193.476 92.9114C195.072 94.4516 196.136 96.972 196.136 100.08C196.136 103.777 194.736 106.325 193.251 107.781C191.123 109.966 187.427 111.478 182.582 111.478H166.228V111.534ZM176.421 87.7588H178.298C179.362 87.7588 181.126 87.6468 182.19 86.5266C182.834 85.8825 183.142 84.8184 183.142 83.9503C183.142 82.9422 182.778 81.934 182.19 81.29C181.546 80.6459 180.314 80.1138 178.298 80.1138H176.421V87.7588ZM176.421 103.581H178.718C181.546 103.581 183.898 103.273 185.018 101.985C185.495 101.453 185.831 100.584 185.831 99.4643C185.831 98.2321 185.41 97.224 184.822 96.6359C183.59 95.4038 181.042 95.3478 178.522 95.3478H176.393V103.581H176.421Z" fill="#0D114F"/>
<path d="M229.629 100.108H210.027C210.027 101.509 210.559 103.413 211.679 104.533C212.267 105.121 213.443 105.821 215.572 105.821C215.796 105.821 217.448 105.765 218.624 105.121C219.212 104.757 219.856 104.169 220.276 103.357H229.293C228.873 104.841 228.061 106.885 226.129 108.761C224.197 110.638 221.116 112.402 215.404 112.402C211.931 112.402 207.759 111.646 204.51 108.397C202.802 106.689 200.618 103.441 200.618 98.4562C200.618 94.0316 202.27 90.5031 204.566 88.2629C206.75 86.1346 210.167 84.4264 215.348 84.4264C218.4 84.4264 222.348 85.0704 225.485 88.0108C229.181 91.5393 229.657 96.1319 229.657 99.0722V100.08L229.629 100.108ZM220.976 94.7037C220.752 93.6956 220.164 92.5754 219.436 91.8753C218.204 90.6432 216.496 90.4751 215.544 90.4751C213.947 90.4751 212.715 90.8952 211.707 91.8753C211.063 92.5754 210.475 93.5275 210.307 94.7037H220.976Z" fill="#0D114F"/>
<path d="M235.033 85.2105H244.442V88.5149C247.047 85.0985 250.519 84.6224 252.787 84.6224C255.504 84.6224 258.388 85.2665 260.572 87.4508C262.757 89.635 263.037 91.9313 263.037 94.8157V111.534H253.628V98.2321C253.628 96.6919 253.684 94.3956 252.451 93.1075C251.555 92.1554 250.379 91.9873 249.455 91.9873C247.971 91.9873 246.739 92.5194 245.983 93.2195C245.03 94.1156 244.442 95.8238 244.442 97.392V111.534H235.033V85.2105Z" fill="#0D114F"/>
<path d="M297.37 100.108H277.768C277.768 101.509 278.3 103.413 279.42 104.533C280.008 105.121 281.184 105.821 283.312 105.821C283.536 105.821 285.189 105.765 286.365 105.121C286.953 104.757 287.597 104.169 288.017 103.357H297.034C296.614 104.841 295.802 106.885 293.87 108.761C291.937 110.638 288.857 112.402 283.144 112.402C279.672 112.402 275.499 111.646 272.251 108.397C270.543 106.689 268.358 103.441 268.358 98.4562C268.358 94.0316 270.011 90.5031 272.307 88.2629C274.491 86.1346 277.908 84.4264 283.088 84.4264C286.141 84.4264 290.089 85.0704 293.226 88.0108C296.922 91.5393 297.398 96.1319 297.398 99.0722V100.08L297.37 100.108ZM288.717 94.7037C288.493 93.6956 287.905 92.5754 287.177 91.8753C285.945 90.6432 284.236 90.4751 283.284 90.4751C281.688 90.4751 280.456 90.8952 279.448 91.8753C278.804 92.5754 278.216 93.5275 278.048 94.7037H288.717Z" fill="#0D114F"/>
<path d="M312.911 92.9395V111.534H303.502V92.9395H300.198V85.2385H303.502V80.8139C303.502 77.9855 303.81 74.9892 305.91 72.1608C308.319 68.9124 311.903 67.9883 315.04 67.9883C316.804 67.9883 318.204 68.3523 319.576 68.8844V77.0054C318.288 76.2493 317.168 76.1093 316.636 76.1093C315.236 76.1093 314.396 76.6414 313.976 77.1174C312.967 78.2376 312.911 80.2258 312.911 81.542V85.2665H319.492V92.9675H312.911V92.9395Z" fill="#0D114F"/>
<path d="M332.99 85.2105V111.534H323.581V85.2105H332.99ZM337.582 72.9169L328.509 80.9259L324.141 77.6775L331.618 68.6043L337.554 72.8889L337.582 72.9169Z" fill="#0D114F"/>
<path d="M359.287 110.946C356.766 112.178 354.694 112.43 352.762 112.43C347.637 112.43 344.277 110.246 342.4 108.425C339.936 106.017 338.34 102.489 338.34 98.5962C338.34 94.7037 339.936 91.0072 342.568 88.4029C345.033 86.0506 348.701 84.3983 353.154 84.3983C354.806 84.3983 356.934 84.7064 359.287 85.8825V93.7795C358.054 92.9114 356.402 92.0713 354.414 92.0713C352.174 92.0713 350.773 92.9394 349.821 93.8916C348.533 95.1797 348.001 96.8879 348.001 98.4281C348.001 99.9683 348.533 101.593 349.653 102.853C350.549 103.805 352.062 104.841 354.47 104.841C355.814 104.841 357.578 104.533 359.287 103.077V110.974V110.946Z" fill="#0D114F"/>
<path d="M369.367 68.9684C372.308 68.9684 374.66 71.3207 374.66 74.2611C374.66 77.2014 372.308 79.5537 369.367 79.5537C366.427 79.5537 364.075 77.2014 364.075 74.2611C364.075 71.3207 366.427 68.9684 369.367 68.9684ZM374.072 85.2105V111.534H364.663V85.2105H374.072Z" fill="#0D114F"/>
<path d="M406.976 108.061C403.504 111.478 399.443 112.43 395.215 112.43C391.378 112.43 387.15 111.674 383.509 108.061C380.625 105.233 379.449 101.873 379.449 98.3441C379.449 93.6395 381.577 90.5871 383.509 88.6829C385.694 86.5546 389.502 84.3143 395.215 84.3143C400.927 84.3143 404.82 86.6106 406.976 88.6829C408.909 90.5591 411.037 93.6395 411.037 98.3441C411.037 101.873 409.861 105.233 406.976 108.061ZM391.014 94.0596C389.838 95.1797 389.194 96.8319 389.194 98.3441C389.194 99.8563 389.95 101.453 391.014 102.517C392.134 103.637 393.675 104.281 395.243 104.281C396.811 104.281 398.295 103.637 399.415 102.517C400.591 101.397 401.236 99.8563 401.236 98.3441C401.236 96.944 400.591 95.2357 399.415 94.0596C398.351 93.0515 396.699 92.3514 395.243 92.3514C393.787 92.3514 392.078 93.0515 391.014 94.0596Z" fill="#0D114F"/>
<path d="M418.149 102.825C419.269 103.665 420.613 104.365 421.929 104.757C423.106 105.177 424.59 105.401 425.57 105.401C426.27 105.401 427.39 105.233 427.978 104.701C428.398 104.281 428.454 103.945 428.454 103.469C428.454 103.049 428.398 102.657 427.978 102.293C427.39 101.761 426.438 101.593 425.514 101.341L423.05 100.752C421.762 100.444 419.857 99.9964 418.457 98.4562C417.449 97.392 416.749 95.9358 416.749 93.9196C416.749 91.3993 417.757 89.047 419.213 87.5068C421.201 85.4345 424.758 84.3423 428.622 84.3423C432.487 84.3423 435.511 85.4065 437.051 86.0506L433.887 92.0433C432.599 91.4553 430.639 90.7552 428.93 90.7552C427.978 90.7552 427.334 90.9232 426.746 91.2872C426.214 91.5953 425.934 91.9873 425.934 92.5754C425.934 93.3875 426.466 93.8076 427.054 94.0596C427.95 94.4236 428.706 94.4236 430.163 94.8157L431.871 95.2918C433.103 95.6558 434.979 96.5799 435.763 97.364C437.051 98.5962 437.752 100.668 437.752 102.601C437.752 105.765 436.407 107.893 435.091 109.126C432.039 112.178 427.558 112.43 425.374 112.43C423.022 112.43 419.297 112.122 414.789 109.378L418.149 102.853V102.825Z" fill="#0D114F"/>
<defs>
<filter id="filter0_d_11_161" x="0.92334" y="10.5046" width="133.971" height="64.0339" filterUnits="userSpaceOnUse" color-interpolation-filters="sRGB">
<feFlood flood-opacity="0" result="BackgroundImageFix"/>
<feColorMatrix in="SourceAlpha" type="matrix" values="0 0 0 0 0 0 0 0 0 0 0 0 0 0 0 0 0 0 127 0" result="hardAlpha"/>
<feOffset dy="4"/>
<feGaussianBlur stdDeviation="2"/>
<feComposite in2="hardAlpha" operator="out"/>
<feColorMatrix type="matrix" values="0 0 0 0 0 0 0 0 0 0 0 0 0 0 0 0 0 0 0.05 0"/>
<feBlend mode="normal" in2="BackgroundImageFix" result="effect1_dropShadow_11_161"/>
<feBlend mode="normal" in="SourceGraphic" in2="effect1_dropShadow_11_161" result="shape"/>
</filter>
<filter id="filter1_d_11_161" x="28.3384" y="0" width="78.7769" height="39.1781" filterUnits="userSpaceOnUse" color-interpolation-filters="sRGB">
<feFlood flood-opacity="0" result="BackgroundImageFix"/>
<feColorMatrix in="SourceAlpha" type="matrix" values="0 0 0 0 0 0 0 0 0 0 0 0 0 0 0 0 0 0 127 0" result="hardAlpha"/>
<feOffset dy="4"/>
<feGaussianBlur stdDeviation="2"/>
<feComposite in2="hardAlpha" operator="out"/>
<feColorMatrix type="matrix" values="0 0 0 0 0 0 0 0 0 0 0 0 0 0 0 0 0 0 0.05 0"/>
<feBlend mode="normal" in2="BackgroundImageFix" result="effect1_dropShadow_11_161"/>
<feBlend mode="normal" in="SourceGraphic" in2="effect1_dropShadow_11_161" result="shape"/>
</filter>
<filter id="filter2_d_11_161" x="0" y="26.1986" width="113.018" height="51.1095" filterUnits="userSpaceOnUse" color-interpolation-filters="sRGB">
<feFlood flood-opacity="0" result="BackgroundImageFix"/>
<feColorMatrix in="SourceAlpha" type="matrix" values="0 0 0 0 0 0 0 0 0 0 0 0 0 0 0 0 0 0 127 0" result="hardAlpha"/>
<feOffset dy="4"/>
<feGaussianBlur stdDeviation="2"/>
<feComposite in2="hardAlpha" operator="out"/>
<feColorMatrix type="matrix" values="0 0 0 0 0 0 0 0 0 0 0 0 0 0 0 0 0 0 0.1 0"/>
<feBlend mode="normal" in2="BackgroundImageFix" result="effect1_dropShadow_11_161"/>
<feBlend mode="normal" in="SourceGraphic" in2="effect1_dropShadow_11_161" result="shape"/>
</filter>
</defs>
</svg>
