<svg width="922" height="494" viewBox="0 0 922 494" fill="none" xmlns="http://www.w3.org/2000/svg">
<g clip-path="url(#clip0_32_26)">
<path d="M194.527 514.057H53.927C53.927 514.057 51.077 472.257 67.939 471.782C84.801 471.307 82.901 490.307 104.039 464.182C125.177 438.057 150.826 439.482 154.151 454.92C157.476 470.358 147.739 482.707 165.551 478.907C183.363 475.107 209.014 485.082 194.527 514.057Z" fill="#EBF3FF"/>
<path d="M121.854 514.067L121.379 514.048C122.486 486.528 128.249 468.848 132.89 458.858C137.928 448.014 142.783 443.624 142.832 443.581L143.148 443.936C143.1 443.979 138.302 448.325 133.304 459.096C128.689 469.04 122.957 486.65 121.854 514.067Z" fill="white"/>
<path d="M172.74 514.123L172.284 513.99C175.82 502.327 182.194 491.722 190.835 483.127L191.154 483.479C182.577 492.015 176.25 502.543 172.74 514.123Z" fill="white"/>
<path d="M76.0734 514.09L75.6024 514.025C77.1354 503.707 75.5135 493.167 70.9494 483.787C69.0784 479.853 66.6016 476.237 63.6094 473.071L63.9384 472.728C66.9711 475.933 69.482 479.593 71.3794 483.576C75.9846 493.042 77.6208 503.678 76.0734 514.09Z" fill="white"/>
<path d="M213.608 514.692H38.7633L38.7233 514.1C38.6233 512.627 36.3923 477.872 47.6533 465.471C48.7705 464.161 50.1496 463.1 51.7019 462.355C53.2542 461.61 54.9453 461.198 56.6663 461.146C64.0063 460.937 68.6193 463.687 72.3403 465.893C79.3533 470.053 83.9853 472.802 100.83 451.983C119.077 429.43 138.766 424.577 150.084 427.275C157.397 429.019 162.437 433.946 163.912 440.795C165.312 447.28 164.864 453.373 164.506 458.27C164.123 463.509 163.821 467.646 165.973 469.522C167.773 471.087 171.354 471.229 177.254 469.97C189.254 467.41 206.002 469.6 214.407 480.461C218.929 486.304 222.492 496.924 213.784 514.341L213.608 514.692ZM39.9563 513.421H212.821C219.31 500.256 219.513 489.134 213.402 481.239C205.691 471.276 189.514 468.654 177.519 471.213C171.108 472.581 167.289 472.355 165.138 470.481C162.507 468.189 162.83 463.771 163.238 458.181C163.59 453.366 164.027 447.373 162.669 441.066C161.301 434.715 156.606 430.14 149.788 428.515C138.831 425.901 119.688 430.692 101.817 452.785C84.2833 474.457 79.0003 471.325 71.6913 466.985C67.9243 464.751 63.6483 462.218 56.7013 462.415C55.1518 462.465 53.63 462.839 52.2336 463.512C50.8372 464.185 49.5972 465.143 48.5933 466.324C38.4753 477.47 39.7093 508.722 39.9573 513.421H39.9563Z" fill="#0D114F"/>
<path d="M784.909 515.398H612.693L612.66 514.433L604.437 279.253H793.164L784.909 515.398ZM614.625 513.398H782.977L791.094 281.253H606.507L614.625 513.398Z" fill="#0D114F"/>
<path d="M653.773 322.828H640.674V484.925H653.773V322.828Z" fill="#0D114F"/>
<path d="M705.349 322.828H692.25V484.925H705.349V322.828Z" fill="#0D114F"/>
<path d="M756.925 322.828H743.826V484.925H756.925V322.828Z" fill="#0D114F"/>
<path d="M902.598 348.314L901.752 347.78L687.838 212.597L706.393 183.235L707.239 183.769L921.152 318.952L902.598 348.314ZM690.598 211.975L901.975 345.554L918.393 319.575L707.017 185.994L690.598 211.975Z" fill="#0D114F"/>
<path d="M850.95 201.701C844.732 197.766 837.515 195.697 830.157 195.741C822.799 195.784 815.607 197.937 809.436 201.945C803.265 205.953 798.373 211.647 795.341 218.352C792.308 225.057 791.264 232.49 792.33 239.771L802.53 246.217C799.966 240.265 799.376 233.649 800.845 227.337C802.313 221.025 805.764 215.35 810.692 211.141C815.62 206.932 821.766 204.412 828.23 203.948C834.694 203.485 841.136 205.103 846.614 208.566C852.091 212.029 856.316 217.155 858.67 223.193C861.024 229.231 861.383 235.863 859.695 242.12C858.007 248.377 854.36 253.929 849.288 257.963C844.216 261.997 837.986 264.301 831.51 264.538L841.71 270.984C848.744 268.825 855.012 264.692 859.768 259.078C864.524 253.463 867.57 246.602 868.544 239.308C869.518 232.014 868.378 224.594 865.261 217.928C862.144 211.262 857.18 205.631 850.959 201.701H850.95Z" fill="#0D114F"/>
<path d="M397.885 500.371H383.321L376.389 444.197H397.889L397.885 500.371Z" fill="#FEB8B8"/>
<path d="M392.766 413.326L402.812 423.871L448.264 390.144L433.438 374.581L392.766 413.326Z" fill="#FEB8B8"/>
<path d="M413.161 428.703L393.612 408.19L380.809 420.392L412.391 453.53L412.568 453.361C414.226 451.781 415.557 449.89 416.484 447.795C417.411 445.701 417.916 443.445 417.971 441.155C418.026 438.865 417.63 436.587 416.805 434.45C415.979 432.314 414.741 430.361 413.161 428.703Z" fill="#0D114F"/>
<path d="M291.396 259.428C290.474 257.945 289.889 256.278 289.681 254.545C289.473 252.811 289.647 251.053 290.192 249.394C290.737 247.736 291.639 246.216 292.834 244.944C294.03 243.671 295.489 242.676 297.111 242.028L354.29 96.3013L376.578 109.646L313.06 249.446C313.968 252.243 313.818 255.276 312.638 257.97C311.459 260.663 309.333 262.831 306.662 264.061C303.992 265.292 300.962 265.5 298.149 264.646C295.335 263.792 292.932 261.936 291.396 259.428Z" fill="#FEB8B8"/>
<path d="M508.428 269.873C506.685 269.749 504.992 269.244 503.466 268.394C501.94 267.544 500.619 266.369 499.596 264.953C498.574 263.537 497.874 261.914 497.546 260.199C497.219 258.483 497.271 256.716 497.701 255.023L413.347 123.154L437.238 112.954L513.074 246.477C515.874 247.383 518.245 249.285 519.735 251.823C521.226 254.36 521.733 257.357 521.16 260.244C520.587 263.131 518.973 265.707 516.626 267.483C514.279 269.258 511.362 270.111 508.428 269.877V269.873Z" fill="#FEB8B8"/>
<path d="M354.853 244.836L369.784 466.749L405.466 463.601L412.811 299.879L432.751 370.193L475.779 373.341L458.748 234.341L354.853 244.836Z" fill="#0D114F"/>
<path d="M439.049 359.699L432.749 370.194L388.676 400.628L420.16 417.42C420.16 417.42 481.029 383.837 475.782 373.342L439.049 359.699Z" fill="#0D114F"/>
<path d="M323.606 155.052L336.027 120.052C338.791 112.265 343.071 105.102 348.621 98.9801C354.171 92.8577 360.88 87.8967 368.359 84.3843C385.171 78.1907 403.456 77.1898 420.843 81.5113L425.363 82.6333C437.417 85.5548 448.71 91.009 458.491 98.6333C466.145 104.667 473.031 112.307 473.644 120.525C473.648 120.543 473.653 120.56 473.659 120.576C475.779 129.868 476.828 178.143 476.828 178.143H458.128L461.086 243.21L460.847 242.739C460.847 242.739 352.991 263.15 352.991 252.655V185.487L350.78 161.167L323.606 155.052Z" fill="#EBF3FF"/>
<path d="M424.28 72.4133C440.787 72.4133 454.169 59.0316 454.169 42.5243C454.169 26.0171 440.787 12.6353 424.28 12.6353C407.772 12.6353 394.391 26.0171 394.391 42.5243C394.391 59.0316 407.772 72.4133 424.28 72.4133Z" fill="#FEB8B8"/>
<path d="M428.757 29.1203L451.965 30.0503C454.885 30.0413 458.073 29.9383 460.297 28.0503C463.647 25.2013 463.086 19.8253 461.292 15.8093C456.292 4.62733 445.139 0.621337 432.892 0.950337C420.645 1.27934 407.812 5.43033 401.217 15.7503C394.622 26.0703 392.84 39.1023 395.324 51.0943C398.195 44.9966 402.616 39.7587 408.145 35.9036C413.674 32.0484 420.117 29.7109 426.832 29.1243L428.757 29.1203Z" fill="#0D114F"/>
<path d="M566.571 321.476L482.569 262.604C481.789 262.054 481.258 261.218 481.093 260.278C480.927 259.338 481.141 258.371 481.687 257.589L547.619 163.516C548.168 162.736 549.004 162.205 549.944 162.039C550.884 161.874 551.851 162.088 552.634 162.634L636.635 221.507C637.416 222.056 637.947 222.892 638.112 223.832C638.277 224.772 638.063 225.739 637.517 226.522L571.588 320.592C571.039 321.373 570.202 321.905 569.262 322.071C568.322 322.237 567.354 322.023 566.571 321.476Z" fill="#3485FF"/>
<path d="M585.462 257.595L536.171 223.05C535.601 222.65 535.116 222.142 534.742 221.555C534.368 220.968 534.114 220.313 533.993 219.627C533.873 218.942 533.888 218.239 534.039 217.56C534.19 216.88 534.473 216.237 534.873 215.667C535.272 215.097 535.78 214.611 536.368 214.237C536.955 213.864 537.61 213.609 538.296 213.489C538.981 213.368 539.684 213.384 540.363 213.535C541.043 213.686 541.686 213.969 542.256 214.368L591.547 248.914C592.698 249.721 593.481 250.952 593.725 252.337C593.968 253.721 593.652 255.146 592.845 256.297C592.038 257.448 590.807 258.232 589.423 258.475C588.038 258.719 586.613 258.402 585.462 257.595Z" fill="white"/>
<path d="M574.15 273.736L524.859 239.191C524.288 238.791 523.802 238.284 523.427 237.696C523.053 237.109 522.798 236.454 522.677 235.768C522.556 235.082 522.572 234.379 522.723 233.699C522.873 233.019 523.157 232.375 523.557 231.805C523.956 231.235 524.465 230.749 525.052 230.375C525.64 230.001 526.295 229.747 526.981 229.626C527.667 229.506 528.37 229.522 529.05 229.674C529.73 229.825 530.373 230.109 530.943 230.509L580.234 265.055C581.384 265.862 582.166 267.093 582.409 268.477C582.652 269.861 582.335 271.285 581.529 272.435C580.722 273.586 579.492 274.369 578.108 274.613C576.725 274.857 575.301 274.542 574.15 273.736Z" fill="white"/>
<path d="M562.715 290.051L513.424 255.505C512.854 255.105 512.369 254.598 511.995 254.01C511.621 253.423 511.367 252.768 511.246 252.082C511.126 251.397 511.141 250.694 511.292 250.015C511.443 249.335 511.726 248.692 512.126 248.122C512.525 247.552 513.033 247.066 513.621 246.693C514.208 246.319 514.863 246.064 515.548 245.944C516.234 245.823 516.937 245.839 517.616 245.99C518.296 246.141 518.939 246.424 519.509 246.824L568.8 281.369C569.951 282.176 570.734 283.407 570.978 284.792C571.221 286.176 570.905 287.601 570.098 288.752C569.291 289.903 568.06 290.687 566.676 290.93C565.291 291.174 563.866 290.857 562.715 290.051Z" fill="white"/>
<path d="M585.324 225.665L566.232 212.285C565.661 211.886 565.175 211.378 564.8 210.791C564.426 210.203 564.171 209.548 564.05 208.862C563.929 208.176 563.945 207.473 564.096 206.793C564.247 206.113 564.53 205.47 564.93 204.899C565.329 204.329 565.838 203.843 566.425 203.469C567.013 203.095 567.668 202.841 568.354 202.721C569.04 202.6 569.743 202.616 570.423 202.768C571.103 202.919 571.746 203.203 572.316 203.603L591.408 216.984C592.559 217.791 593.343 219.022 593.586 220.406C593.83 221.791 593.513 223.216 592.707 224.367C591.9 225.518 590.669 226.302 589.284 226.545C587.899 226.789 586.475 226.472 585.324 225.665Z" fill="white"/>
</g>
<defs>
<clipPath id="clip0_32_26">
<rect width="920.304" height="515.087" fill="white" transform="translate(0.848145 0.931763)"/>
</clipPath>
</defs>
</svg>
